/* XPM */
static char * chips2_xpm[] = {
"32 32 358 2",
"  	c #C0D470",
". 	c #A4C263",
"+ 	c #B2C568",
"@ 	c #AEC165",
"# 	c #95B059",
"$ 	c #98A858",
"% 	c #8D9C51",
"& 	c #989D51",
"* 	c #97731E",
"= 	c #AB983C",
"- 	c #AEA14D",
"; 	c #ABA451",
"> 	c #ABA351",
", 	c #ACA24F",
"' 	c #AE9B41",
") 	c #A68B33",
"! 	c #5D6531",
"~ 	c #BF962F",
"{ 	c #D9CD66",
"] 	c #E5D365",
"^ 	c #F1D85F",
"/ 	c #ECD458",
"( 	c #E7CA54",
"_ 	c #E7C853",
": 	c #EBD259",
"< 	c #F1DB64",
"[ 	c #EFD65D",
"} 	c #ECDA6C",
"| 	c #E5D369",
"1 	c #D9CD68",
"2 	c #BF9732",
"3 	c #7A8442",
"4 	c #DDAC10",
"5 	c #F6CD20",
"6 	c #FFE92B",
"7 	c #FFEA2B",
"8 	c #FFE425",
"9 	c #FEE80D",
"0 	c #FEEC1E",
"a 	c #FEED63",
"b 	c #FEED7C",
"c 	c #FEEC1F",
"d 	c #FEEC1B",
"e 	c #FDF381",
"f 	c #F3E5BE",
"g 	c #F1E1C3",
"h 	c #F1CF94",
"i 	c #E4C169",
"j 	c #7A8544",
"k 	c #937016",
"l 	c #FFDD30",
"m 	c #FFE52E",
"n 	c #FEE51F",
"o 	c #FEEA1B",
"p 	c #FFF665",
"q 	c #FFFCB4",
"r 	c #FFF59C",
"s 	c #FFF8C0",
"t 	c #FFF39C",
"u 	c #FFFBB4",
"v 	c #FDF36A",
"w 	c #FCE02B",
"x 	c #F3DC9A",
"y 	c #F0E0C3",
"z 	c #EAD1A2",
"A 	c #89673B",
"B 	c #BED26F",
"C 	c #756115",
"D 	c #F8CE29",
"E 	c #FFDA34",
"F 	c #FCD325",
"G 	c #FFE97A",
"H 	c #EFAA7A",
"I 	c #D57C75",
"J 	c #D56D00",
"K 	c #DA751D",
"L 	c #E1870D",
"M 	c #F9C714",
"N 	c #F7C370",
"O 	c #FED191",
"P 	c #FDEAB4",
"Q 	c #F7CC3D",
"R 	c #F4C766",
"S 	c #F3D784",
"T 	c #786C3C",
"U 	c #B4C064",
"V 	c #C69D20",
"W 	c #FBD42F",
"X 	c #FCD758",
"Y 	c #F2C098",
"Z 	c #CE3838",
"` 	c #F2D7D7",
" .	c #CB4949",
"..	c #EFD6D6",
"+.	c #ECABAB",
"@.	c #E85254",
"#.	c #FFCD3B",
"$.	c #F2C573",
"%.	c #E9BD95",
"&.	c #F8C713",
"*.	c #C79518",
"=.	c #B4C165",
"-.	c #AFC165",
";.	c #976C08",
">.	c #D9A40E",
",.	c #FBD97C",
"'.	c #E5BCBF",
").	c #D86868",
"!.	c #E7C2C1",
"~.	c #D37777",
"{.	c #F6D4D4",
"].	c #F7E6E6",
"^.	c #FF7D81",
"/.	c #FBEEEF",
"(.	c #F5CECE",
"_.	c #FCDA7C",
":.	c #FCD218",
"<.	c #BBA024",
"[.	c #986D09",
"}.	c #E1AE0E",
"|.	c #FCD97B",
"1.	c #E4BABB",
"2.	c #F2D9D9",
"3.	c #C93131",
"4.	c #DE8887",
"5.	c #F4DDDD",
"6.	c #D56161",
"7.	c #F1CFCF",
"8.	c #FF807F",
"9.	c #FD8B86",
"0.	c #F9E2DC",
"a.	c #FCDA7B",
"b.	c #BA9E23",
"c.	c #9A7108",
"d.	c #F5C816",
"e.	c #FCD648",
"f.	c #EABF8A",
"g.	c #F4DDD8",
"h.	c #FCEDDA",
"i.	c #E4946B",
"j.	c #CB4533",
"k.	c #F4DCDC",
"l.	c #EAC1C2",
"m.	c #F8E1C7",
"n.	c #EED1D0",
"o.	c #E6B9B2",
"p.	c #FCDA74",
"q.	c #FAD022",
"r.	c #A58007",
"s.	c #B29318",
"t.	c #FFD932",
"u.	c #FCD212",
"v.	c #FFEDA8",
"w.	c #F7B36E",
"x.	c #FFE500",
"y.	c #FFE81E",
"z.	c #E8A41B",
"A.	c #EB9B87",
"B.	c #E2A2A3",
"C.	c #CD242C",
"D.	c #C90000",
"E.	c #EDB882",
"F.	c #FCD74C",
"G.	c #F7D030",
"H.	c #936707",
"I.	c #A17718",
"J.	c #CF9230",
"K.	c #CB9836",
"L.	c #EEC546",
"M.	c #FFEFD6",
"N.	c #F3B02D",
"O.	c #FFE522",
"P.	c #F9C71B",
"Q.	c #F09E0B",
"R.	c #E47100",
"S.	c #E57923",
"T.	c #F6B569",
"U.	c #FDE385",
"V.	c #FDD736",
"W.	c #E8B818",
"X.	c #946A09",
"Y.	c #875121",
"Z.	c #C8944C",
"`.	c #E1B45D",
" +	c #D0A050",
".+	c #EECA55",
"++	c #FCE18B",
"@+	c #EFA165",
"#+	c #EFA57B",
"$+	c #EFA47B",
"%+	c #EF9F61",
"&+	c #FCEAD3",
"*+	c #FCF083",
"=+	c #FDDC33",
"-+	c #FAD22B",
";+	c #D09812",
">+	c #956B09",
",+	c #825B2B",
"'+	c #E8BD69",
")+	c #F4CB74",
"!+	c #EBC066",
"~+	c #CC943B",
"{+	c #F5CF48",
"]+	c #FEE7A2",
"^+	c #FDEBC0",
"/+	c #FDE7A2",
"(+	c #FDD943",
"_+	c #FEE700",
":+	c #FFE327",
"<+	c #E3B21A",
"[+	c #CF9611",
"}+	c #DEB161",
"|+	c #F4CF82",
"1+	c #F2DBB1",
"2+	c #D9B98C",
"3+	c #E3BF74",
"4+	c #FCD600",
"5+	c #FBD100",
"6+	c #FBCF00",
"7+	c #FCD10E",
"8+	c #FED82B",
"9+	c #FFEB25",
"0+	c #FFE72D",
"a+	c #D9A51B",
"b+	c #CF9511",
"c+	c #71451F",
"d+	c #BB8C55",
"e+	c #F0DFC1",
"f+	c #E5CDAA",
"g+	c #E5CEAA",
"h+	c #EBD8B5",
"i+	c #F3E07E",
"j+	c #FFEB2F",
"k+	c #FFE030",
"l+	c #FFE42D",
"m+	c #FFEA2A",
"n+	c #FFF225",
"o+	c #FFE520",
"p+	c #EFC111",
"q+	c #D39C10",
"r+	c #E8EEAA",
"s+	c #623311",
"t+	c #B28562",
"u+	c #ECDBB4",
"v+	c #ECD9B9",
"w+	c #E7D1AF",
"x+	c #E6CEAB",
"y+	c #EFDCB4",
"z+	c #FDE65A",
"A+	c #FFF325",
"B+	c #FFF322",
"C+	c #FFF21B",
"D+	c #FFF217",
"E+	c #FEE906",
"F+	c #FCD509",
"G+	c #EEC017",
"H+	c #956A09",
"I+	c #D3D99A",
"J+	c #9D5A0F",
"K+	c #E2A921",
"L+	c #EACF8D",
"M+	c #E7D1B0",
"N+	c #EAD6B5",
"O+	c #F6EBCD",
"P+	c #F3E6C7",
"Q+	c #F6C858",
"R+	c #FDDE11",
"S+	c #FFEE0E",
"T+	c #FFF207",
"U+	c #FEEE06",
"V+	c #FEDC1A",
"W+	c #FAD01F",
"X+	c #BA8808",
"Y+	c #B4C164",
"Z+	c #ACB45C",
"`+	c #D29D0A",
" @	c #FCDA19",
".@	c #E9A345",
"+@	c #ECCC89",
"@@	c #F4E6C2",
"#@	c #F2DDA9",
"$@	c #F4BE40",
"%@	c #FCD10F",
"&@	c #FCD808",
"*@	c #FEEA08",
"=@	c #FFF008",
"-@	c #FFEF0C",
";@	c #FFE729",
">@	c #FFDC34",
",@	c #E9C227",
"'@	c #685113",
")@	c #E6ECA8",
"!@	c #6D4D06",
"~@	c #F1C512",
"{@	c #F7D310",
"]@	c #F7C30B",
"^@	c #FAD200",
"/@	c #F0C76A",
"(@	c #E9B78A",
"_@	c #EDB14C",
":@	c #F6BF22",
"<@	c #FFD82B",
"[@	c #FED61E",
"}@	c #FAD00E",
"|@	c #F6D80E",
"1@	c #FFEE22",
"2@	c #FBD630",
"3@	c #E6C111",
"4@	c #8B660E",
"5@	c #E5EAA7",
"6@	c #A27A0F",
"7@	c #FCE519",
"8@	c #FDE318",
"9@	c #FDEA1B",
"0@	c #FFE42E",
"a@	c #FDD530",
"b@	c #F9CD30",
"c@	c #FACF31",
"d@	c #FED126",
"e@	c #EEC01C",
"f@	c #EDBE18",
"g@	c #ECBB11",
"h@	c #EABA11",
"i@	c #F6CB1B",
"j@	c #FFDA27",
"k@	c #F5CE1B",
"l@	c #DDB416",
"m@	c #D8B117",
"n@	c #7E8743",
"o@	c #666C33",
"p@	c #C4A041",
"q@	c #E5E18B",
"r@	c #E3DE87",
"s@	c #EADB6F",
"t@	c #ECE170",
"u@	c #ECE070",
"v@	c #ECDC6C",
"w@	c #ECD260",
"x@	c #E6C14C",
"y@	c #E5BF4A",
"z@	c #E5BF49",
"A@	c #E9C34E",
"B@	c #F2E47B",
"C@	c #ECD15E",
"D@	c #D4B449",
"E@	c #DBCA53",
"F@	c #5F6732",
"G@	c #8B9A50",
"H@	c #987620",
"I@	c #ABA250",
"J@	c #AB903B",
"K@	c #A58932",
"L@	c #A68A33",
"M@	c #A58A32",
"N@	c #A99D4A",
"O@	c #967633",
"P@	c #8E9D51",
"Q@	c #AFC166",
"                                                                ",
"                                                                ",
"                                                                ",
"                        .                         .   .         ",
"                  + @ # @ @ @ @ @ @ @ @ @ @ +       .           ",
"            $ % & * = - ; ; ; ; ; ; > , ' ) * & % $             ",
"        .   ! ~ { ] ^ / ( _ _ _ _ _ : < [ } | 1 2 !             ",
"          . 3 4 5 6 7 8 9 0 a b b a c d e f g h i j             ",
"          .   k l m n o p q r s s t u v w x y z A               ",
"            B C D E F G H I J K L M N O P Q R S T B             ",
"              U V W X Y Z `  ...+.@.#.$.%.X &.*.=.              ",
"              -.;.>.,.'.).).!.~.{.].^./.(._.:.<.@               ",
"              -.[.}.|.1.2.3.4.5.6.7.8.9.0.a.:.b.@               ",
"              -.c.d.e.f.g.h.i.j.k.l.m.n.o.p.q.r.@               ",
"              @ s.t.u.v.w.x.y.z.A.B.C.D.E.F.G.H.@               ",
"              @ I.J.K.L.M.N.O.P.Q.R.S.T.U.V.W.X.@               ",
"              @ Y.Z.`. +.+++@+#+$+%+&+*+=+-+;+>+@               ",
"              @ ,+'+)+!+~+{+]+^+^+/+(+_+:+<+[+>+@               ",
"              @ ,+}+|+1+2+3+4+5+6+7+8+9+0+a+b+>+@               ",
"              @ c+d+e+f+g+h+i+j+k+l+m+n+o+p+q+>+@     r+  r+    ",
"              -.s+t+u+v+w+x+y+z+A+B+C+D+E+F+G+H+@       r+      ",
"              I+J+K+L+M+N+O+P+Q+R+S+T+T+U+V+W+X+Y+              ",
"            r+Z+`+ @.@+@@@O+#@$@%@&@*@=@-@;@>@,@'@B             ",
"      r+    )@!@~@{@]@^@/@(@_@:@<@[@}@|@1@7 2@3@4@              ",
"        r+  5@6@7@8@9@0@a@b@c@d@e@f@g@h@i@j@k@l@m@n@            ",
"        r+  o@p@q@r@s@t@u@v@w@x@y@y@y@z@A@B@C@D@E@F@            ",
"        r+  $ % % G@H@; I@J@K@L@L@L@L@L@M@N@O@P@% $             ",
"                    Q@I+@ @ @ @ @ @ @ @ @ I++                   ",
"                      r+                                        ",
"                                                                ",
"                                                                ",
"                                                                "};
