/* XPM */
static char * chips3_xpm[] = {
"32 32 129 2",
"  	c #C0D470",
". 	c #000000",
"+ 	c #8A4500",
"@ 	c #CE9511",
"# 	c #EAD053",
"$ 	c #F3DB65",
"% 	c #EBE071",
"& 	c #E4BF4A",
"* 	c #E5C04A",
"= 	c #E9B80D",
"- 	c #FFD920",
"; 	c #FFEA2A",
"> 	c #FFE22F",
", 	c #FFE11D",
"' 	c #FEE708",
") 	c #FEEA07",
"! 	c #FEE908",
"~ 	c #FEF248",
"{ 	c #FCF3B5",
"] 	c #F1E1C4",
"^ 	c #F6BC0E",
"/ 	c #F3D77F",
"( 	c #FED521",
"_ 	c #FFF225",
": 	c #FFF207",
"< 	c #FFF739",
"[ 	c #FFFC86",
"} 	c #FFFFFF",
"| 	c #FFF20E",
"1 	c #FEF259",
"2 	c #D8B789",
"3 	c #FFDA34",
"4 	c #FCD809",
"5 	c #FFEA48",
"6 	c #FFF891",
"7 	c #FFE844",
"8 	c #FFE710",
"9 	c #FFED12",
"0 	c #FFE645",
"a 	c #FBF699",
"b 	c #FEE054",
"c 	c #E5CDA8",
"d 	c #FBCF0A",
"e 	c #FFF2A3",
"f 	c #E86A69",
"g 	c #C70605",
"h 	c #CB0705",
"i 	c #D00705",
"j 	c #F7BA17",
"k 	c #F8C31A",
"l 	c #F3AD00",
"m 	c #FFB960",
"n 	c #F6C610",
"o 	c #E76969",
"p 	c #F0A6A6",
"q 	c #FF0C07",
"r 	c #F8CA00",
"s 	c #2D2400",
"t 	c #DA0806",
"u 	c #F4BAB0",
"v 	c #E20906",
"w 	c #F8CFBA",
"x 	c #FFF4CD",
"y 	c #EB8000",
"z 	c #FFE522",
"A 	c #F2ACA9",
"B 	c #FFB761",
"C 	c #F8C11A",
"D 	c #D59421",
"E 	c #BC6E30",
"F 	c #B78341",
"G 	c #F4AE18",
"H 	c #C18F49",
"I 	c #DDAF57",
"J 	c #FFE74C",
"K 	c #EBC069",
"L 	c #F5CC75",
"M 	c #E9B418",
"N 	c #FFEE18",
"O 	c #E2B563",
"P 	c #F2DCB0",
"Q 	c #DABA8B",
"R 	c #FCD709",
"S 	c #E8EEAA",
"T 	c #A06633",
"U 	c #EAD5A1",
"V 	c #FFEF27",
"W 	c #FFE030",
"X 	c #8C4D26",
"Y 	c #F2E5C8",
"Z 	c #F5E28E",
"` 	c #824020",
" .	c #954922",
"..	c #ECD8A4",
"+.	c #FFF416",
"@.	c #E28318",
"#.	c #F2BF1E",
"$.	c #E8C972",
"%.	c #F6ECCE",
"&.	c #FAF3D6",
"*.	c #EDDAB3",
"=.	c #F7C60F",
"-.	c #F2DB98",
";.	c #E2C796",
">.	c #F8EFD2",
",.	c #FFE33A",
"'.	c #EEA612",
").	c #F9D110",
"!.	c #F5DA10",
"~.	c #EFA812",
"{.	c #F1DA97",
"].	c #D7A612",
"^.	c #D29C12",
"/.	c #F1B113",
"(.	c #FFCF1C",
"_.	c #D8A712",
":.	c #ECCF16",
"<.	c #FFD01C",
"[.	c #EACA15",
"}.	c #E1B914",
"|.	c #FCF89B",
"1.	c #FAF597",
"2.	c #EEE57A",
"3.	c #EDC957",
"4.	c #EECA58",
"5.	c #F4ED88",
"6.	c #F7E26B",
"7.	c #E8C74E",
"8.	c #F7E761",
"                                                                ",
"              . . . . . . . . . . . . . . . . . .               ",
"      . . . + @ # $ % % % % % % % % % % % $ # & @ + . . .       ",
"      . @ % % % $ # # & * * * * * * * # $ # $ % % % % @ .       ",
"      . = = - ; ; > , ' ) ) ) ! ) ! ) ) ) ~ { ] ] ] ^ / .       ",
"        + ( > _ _ : : : < [ } } } } [ < : | 1 ] ] ] 2 +         ",
"        . 3 3 3 ( 4 5 6 } 7 8 9 9 8 0 } a b ^ / ] c / .         ",
"        . = 3 3 d b e f g g h i i j k l m } b n ^ / / .         ",
"          + 3 3 d e o g } g g } p h q : r g e d n ^ +           ",
"          s @ = d } g g p g } g } t } q } u } d d 3 s           ",
"          s @ @ d } g p g g } g p } } q } v } d d 3 .           ",
"          s @ = d } g } g g p } g t } q q w } d d 3 .           ",
"          s @ d d e g } } p g g } h } x } h } d ( = .           ",
"          . = 3 d b } y z z z g p } A i h g e d 3 @ .           ",
"          . 3 3 d d e B z z z C y g g g g o e d 3 @ .           ",
"          . D E F D b } y z z C G y y y m e b ( = @ .           ",
"          . E H I I F b e y y y y y y } a J d 3 @ @ .           ",
"          . F K L K I D b e } } } } e b ' ' 3 = @ @ .           ",
"          . F L L L K F M d d d d d d d ' N 3 @ @ @ .           ",
"          . F O L P ] 2 Q R R d d d ( 3 ; _ 3 @ @ @ . S   S     ",
"          . T F ] ] 2 c ] U V ; 3 W > ; _ _ ( = @ @ .   S       ",
"          s X 2 Y Q ] ] 2 c Z _ _ _ _ _ _ : R d = @ .           ",
"          s `  ...] ] 2 ] ] ] 3 _ _ +.: : : ' R ( @ s           ",
"      S   s @.#.$.] 2 ] %.&.*.^ R ' : : : : ) - ( = +           ",
"        S + =., @.-.;.&.>.Y -.^ d R 4 : : ) : > 3 ,.@ .         ",
"        . '.).!.^ ~.C U ] {.^ '.( R R 4 ) +._ V 3 !.].s         ",
"        s ^.9 =.=.8 9 /.@.@.'.3 3 3 (.=.= , ; > 3 _.:.+         ",
"        + ' ! ' | ; 3 3 3 3 3 (.= = = = = = <.- R @ [.}.s       ",
"      s ^.|.a 1.2.% % % % % 3.& & & & & & & 4.5.6.3.7.8..       ",
"      . . . . . @ % % % 3.& & & & & & & & & & % @ . . . .       ",
"                . . . . . . . . . . . . . . . . .               ",
"                                                                "};
