/* XPM */
static char * chips1_xpm[] = {
"32 32 182 2",
"  	c #C0D470",
". 	c #A4C263",
"+ 	c #BED26F",
"@ 	c #A1BE61",
"# 	c #AABA61",
"$ 	c #95A153",
"% 	c #95A254",
"& 	c #95A253",
"* 	c #94A152",
"= 	c #AAB961",
"- 	c #BCD06E",
"; 	c #7D9248",
"> 	c #A5913D",
", 	c #D1B751",
"' 	c #EAD259",
") 	c #E6D15E",
"! 	c #E5CE5C",
"~ 	c #E6D25E",
"{ 	c #EBD661",
"] 	c #E7CF62",
"^ 	c #D0B75A",
"/ 	c #A69240",
"( 	c #92A052",
"_ 	c #93AA55",
": 	c #DBB01E",
"< 	c #FEE42E",
"[ 	c #FEEA28",
"} 	c #FEEA23",
"| 	c #FEF05A",
"1 	c #FEF2B3",
"2 	c #FEEF39",
"3 	c #F7E8A6",
"4 	c #F0DFBE",
"5 	c #D5B065",
"6 	c #ABBB62",
"7 	c #BDD06E",
"8 	c #B89B26",
"9 	c #FEDA32",
"0 	c #FDDA39",
"a 	c #F8D77D",
"b 	c #E7B78B",
"c 	c #E9B148",
"d 	c #F2C243",
"e 	c #FBD887",
"f 	c #FCE39E",
"g 	c #F8D260",
"h 	c #F0D190",
"i 	c #B6A360",
"j 	c #A2A24F",
"k 	c #EBC025",
"l 	c #FBE098",
"m 	c #D6625A",
"n 	c #DF9898",
"o 	c #E4B6B6",
"p 	c #E8A3A1",
"q 	c #FDB78A",
"r 	c #F0C2A4",
"s 	c #FCE199",
"t 	c #F6C821",
"u 	c #A4A452",
"v 	c #95A051",
"w 	c #D4A00F",
"x 	c #FAE2B2",
"y 	c #E1A1A0",
"z 	c #CE5555",
"A 	c #EBC1C1",
"B 	c #E7A8A8",
"C 	c #FEBFBE",
"D 	c #F7B0AA",
"E 	c #FCE5B6",
"F 	c #F8D023",
"G 	c #96A251",
"H 	c #EABD1C",
"I 	c #FCDB67",
"J 	c #EFC8B8",
"K 	c #F9D999",
"L 	c #DD8D48",
"M 	c #EDC2C1",
"N 	c #EFC3B8",
"O 	c #DD918C",
"P 	c #FBE099",
"Q 	c #EBBF1F",
"R 	c #949F51",
"S 	c #E1B12E",
"T 	c #E5B633",
"U 	c #FCDFA1",
"V 	c #FBD338",
"W 	c #FACF1E",
"X 	c #E68730",
"Y 	c #DC6832",
"Z 	c #ECA86C",
"` 	c #FDDC60",
" .	c #DFB01C",
"..	c #939E51",
"+.	c #919D51",
"@.	c #C7944C",
"#.	c #E5B862",
"$.	c #DFB455",
"%.	c #F9D57A",
"&.	c #F6CDB2",
"*.	c #F5CBB2",
"=.	c #F9D99C",
"-.	c #FEE95F",
";.	c #F7CE28",
">.	c #CC9612",
",.	c #919E52",
"'.	c #D0A359",
").	c #F3D089",
"!.	c #DEBB87",
"~.	c #EFC755",
"{.	c #FCD43C",
"].	c #FBD23C",
"^.	c #FDD62B",
"/.	c #FFEB20",
"(.	c #E9BE25",
"_.	c #CA9210",
":.	c #B2865A",
"<.	c #EBD7B5",
"[.	c #E8D2AF",
"}.	c #E8D1A5",
"|.	c #FCE958",
"1.	c #FFE82B",
"2.	c #FFEC28",
"3.	c #FFF120",
"4.	c #F7CE14",
"5.	c #D39E10",
"6.	c #959F51",
"7.	c #C3882E",
"8.	c #ECD5A7",
"9.	c #E7D1AE",
"0.	c #F3E6C8",
"a.	c #F5D78A",
"b.	c #FEE81B",
"c.	c #FFF20E",
"d.	c #FFF108",
"e.	c #FEE112",
"f.	c #EBBE1A",
"g.	c #A1A14F",
"h.	c #E8EEAA",
"i.	c #AF963C",
"j.	c #F6CF14",
"k.	c #EFBA55",
"l.	c #F0D59B",
"m.	c #F3E1BA",
"n.	c #F3C258",
"o.	c #FCD414",
"p.	c #FDDF09",
"q.	c #FEED0D",
"r.	c #FFEC24",
"s.	c #FAD92E",
"t.	c #A5831E",
"u.	c #BCCF6D",
"v.	c #BD9F21",
"w.	c #FBE123",
"x.	c #FCE123",
"y.	c #FAD633",
"z.	c #F1BA3B",
"A.	c #F9CA2B",
"B.	c #F4CA27",
"C.	c #F2C218",
"D.	c #F0C618",
"E.	c #FEDD2C",
"F.	c #EBC224",
"G.	c #D3B01D",
"H.	c #ACBB61",
"I.	c #96A354",
"J.	c #AB9C52",
"K.	c #BEB96B",
"L.	c #E1CF63",
"M.	c #E8DB6D",
"N.	c #E6CF5F",
"O.	c #E3BF4B",
"P.	c #E0BB47",
"Q.	c #E8D164",
"R.	c #CBAE48",
"S.	c #B09F3F",
"T.	c #94A253",
"U.	c #BBCE6D",
"V.	c #95A052",
"W.	c #94A052",
"X.	c #94A153",
"Y.	c #A9B961",
"                                                                ",
"                                                                ",
"                                                                ",
"                        .                         .   .         ",
"                      .                             .           ",
"                      .                                         ",
"        .                                                       ",
"          .                                                     ",
"          .       + @ # $ % % % % % & * = - +                   ",
"                  ; > , ' ) ! ! ! ~ { ] ^ / (                   ",
"                  _ : < [ } | 1 1 | 2 3 4 5 6                   ",
"                  7 8 9 0 a b c d e f g h i 7                   ",
"                    j k l m n o p q r s t u                     ",
"                    v w x y z A B C D E F G                     ",
"                    v H I J K L M N O P Q R                     ",
"                    v S T U V W X Y Z `  ...                    ",
"                    +.@.#.$.%.&.*.=.-.;.>...                    ",
"                    ,.'.).!.~.{.].^./.(._...                    ",
"                    +.:.<.[.}.|.1.2.3.4.5...                    ",
"                    6.7.8.9.0.a.b.c.d.e.f.g.          h.  h.    ",
"                  + i.j.k.l.m.n.o.p.q.r.s.t.7           h.      ",
"              h.  u.v.w.x.y.z.A.B.C.D.E.F.G.H.                  ",
"            h.    I.J.K.L.M.N.O.P.P.P.Q.R.S.T.                  ",
"      h.    h.    + - U.& % V.W.W.W.W.X.Y.- +                   ",
"        h.  h.                                                  ",
"        h.          h.                                          ",
"        h.            h.                h.  h.                  ",
"                      h.                  h.                    ",
"                      h.                                        ",
"                                                                ",
"                                                                ",
"                                                                "};
