/* XPM */
static char * idle1_xpm[] = {
"32 32 12 1",
" 	c #C0D470",
".	c #A4C263",
"+	c #2A304E",
"@	c #FCFEFE",
"#	c #94A0BA",
"$	c #667291",
"%	c #1C1A30",
"&	c #1C121B",
"*	c #E8EEAA",
"=	c #5E2C29",
"-	c #FC5003",
";	c #FDA216",
"                                ",
"                                ",
"                                ",
"            .            . .    ",
"           .              .     ",
"           .                    ",
"    .       ++++++              ",
"     .    ++@@@@@#++            ",
"     .  ++@@@@@@@@##+           ",
"       +@@@@@$$$$$$$#+          ",
"      +@@@@@$$$$$$$$$+          ",
"     +@@@@@@$$$++$$$$++         ",
"    +@@@@@@$$$+@@$$$$@+         ",
"   +@@@@@@@$$$%@@$$$$@+         ",
"   +@@@$@@@$$$%%%$&&$%$+        ",
"   ++++$@@@$$$$$$$&&&$$+        ",
"      +#@@@$$$$$$$&&&$$+        ",
"      +@@@@@$$$$$$++&$$+        ",
"       +@@@@$$$$$$$$$$+         ",
"       +@@@@@$$$$@##$$+    * *  ",
"        +@@@@@@@@@###+      *   ",
"       * +=@@@@@@###+           ",
"      * +@#====####=$+          ",
"   *  * +@@@@$#====$$+          ",
"    * *+@@@@$@@@-;;#$$+         ",
"    *  +@@@@$@@@-;;#$$+         ",
"    *  +@@@$@@@@-;;#$$+         ",
"        +$$@@@@@###$++          ",
"         +@@@@@###$$+           ",
"         +@@@@++$$$$+           ",
"         +@@@@++$$$+            ",
"         +@@@+ +$$$+            "};
