/* XPM */
static char *idle2[] = {
/* columns rows colors chars-per-pixel */
"32 32 11 1 ",
"  c None",
". c #5E2C29",
"X c #1C121B",
"o c #FDA216",
"O c #1C1A30",
"+ c #FC5003",
"@ c #94A0BA",
"# c #2A304E",
"$ c #667291",
"% c #FCFEFE",
"& c black",
/* pixels */
"                                ",
"                                ",
"                                ",
"                                ",
"                                ",
"            ######              ",
"          ##%%%%%@##            ",
"        ##%%%%%%%%@@#           ",
"       #%%%%%$$$$$$$@#          ",
"      #%%%%%$$$$$$$$$#          ",
"     #%%%%%%$$$##$$$$##         ",
"     #%%%%%$$$#%%$$$$%#         ",
"    #%%%%%%$$$O%%$$$$%#         ",
"    #%%$%%%$$$OOO$XX$O$#        ",
"    #%%$%%%$$$$$$$XXX$$#        ",
"    ###$%%%$$$$$$$XXX$$#        ",
"      #@%%%%$$$$$$##X$$#        ",
"       #%%%%$$$$$$$$$$#         ",
"       #%%%%%$$$$%@@$$#         ",
"        #%%%%%%%%%@@@#          ",
"         #.%%%%%%@@@#           ",
"         #@....@@@@.#           ",
"        #%%%%$@....$$#          ",
"        #%%%$%%%+oo@$#          ",
"       #%%%%$%%%+oo@$$#         ",
"       #%%%$%%%%+oo@$$#         ",
"       #%%%$%%%%%@@@$$#         ",
"        #$$%%%%%@@@$##          ",
"         #%%%%%@@@$$#           ",
"         #%%%%##$$$#            ",
"         #%%%# #$$$#            ",
"         #%%%# #$$$#            "
};
