/* XPM */
static char * walk4_l_xpm[] = {
"32 32 11 1",
" 	c #C0D470",
".	c #A4C263",
"+	c #000000",
"@	c #5F321E",
"#	c #472312",
"$	c #874D32",
"%	c #B57253",
"&	c #FFFFFF",
"*	c #E8EEAA",
"=	c #A06042",
"-	c #D18C6B",
"                                ",
"                                ",
"                                ",
"            .            . .    ",
"           .              .     ",
"           .                    ",
"    .                           ",
"     .                          ",
"     .    .                     ",
"         .                      ",
"         .         . .          ",
"                    .           ",
"           +++   +++            ",
"          +@@@+ +@@@+           ",
"         +#$$$@+@%%%@+          ",
"        +#$$$$$@%$$$%@+         ",
"        +#$%%%%%%%%$%#+         ",
"        +#%%%%%%%%%%%#+         ",
"        +#%%%%%%%%%%%#+         ",
"        +#&+%%%&+%%%%#+    * *  ",
"        +#++%%%++%%%%#+     *   ",
"       *+#%%$%%%%%%%%#+         ",
"      * +#$%%%%%%%%%$#+         ",
"   *  *  +#$$$$$$$$$#+          ",
"    * *   +#=======#+           ",
"    *    +##%%%%%%--#+          ",
"    *    +##%%%%%$--#+*         ",
"          +#%%%%%$$#+*          ",
"          +##$##$$$#+           ",
"           +#######+            ",
"           +###++++             ",
"            +++                 "};
