/* XPM */
static char * walk4_xpm[] = {
"32 32 11 1",
" 	c #C0D470",
".	c #A4C263",
"+	c #000000",
"@	c #5F321E",
"#	c #B57253",
"$	c #874D32",
"%	c #472312",
"&	c #E8EEAA",
"*	c #FFFFFF",
"=	c #A06042",
"-	c #D18C6B",
"                                ",
"                                ",
"                                ",
"            .            . .    ",
"           .              .     ",
"           .                    ",
"    .                           ",
"     .                          ",
"     .    .                     ",
"         .                      ",
"         .         . .          ",
"                    .           ",
"                                ",
"            +++   +++           ",
"           +@@@+ +@@@+          ",
"          +@###@+@$$$%+         ",
"         +@#$$$#@$$$$$%+        ",
"         +%#$########$%+        ",
"         +%###########%+        ",
"         +%###########%+   & &  ",
"         +%####+*###+*%+    &   ",
"       & +%####++###++%+        ",
"      &  +%########$##%+        ",
"   &  &  +%$#########$%+        ",
"    & &   +%$$$$$$$$$%+         ",
"    &     &+%=======%+          ",
"    &     +%--######%%+         ",
"          +%--$#####%%+         ",
"           +%$$$$$$%%+          ",
"           +%$$%%%%%%+          ",
"           +%%%+++%%%+          ",
"            +++   +++           "};
