/* XPM */
static char * enemy_idle_xpm[] = {
"31 32 9 1",
" 	c #C0D470",
".	c #000000",
"+	c #A4C263",
"@	c #00CC8B",
"#	c #005A75",
"$	c #212B5E",
"%	c #FFCCD7",
"&	c #636FB2",
"*	c #E8EEAA",
"                               ",
"                               ",
"                               ",
"          ............  + +    ",
"          ............   +     ",
"        ..@@@@@@@@@@..         ",
"   +    ..@@@@@@@@@@..         ",
"    +   ..@@@@######..         ",
"    +   ..@@@@######..         ",
"    ......@@@@######..         ",
"    ......@@@@######..         ",
"    ..$$$$@@@@######..         ",
"    ..$$$$@@@@######..         ",
"    ..$$$$@@@@%%%%##..         ",
"    ..$$$$@@@@%%%%##..         ",
"    ..$$$$$$@@%%%%##..         ",
"    ..$$$$$$@@%%%%##..         ",
"    ..$$@@@@$$@@@@@@.......... ",
"    ..$$@@@@$$@@@@@@.......... ",
"    ..$$@@&&&&&&&&&&&&&&&&$$.. ",
"    ..$$@@&&&&&&&&&&&&&&&&$$.. ",
"    ..$$@@@@$$&&&&&&$$&&&&..   ",
"    ..$$@@@@$$&&&&&&$$&&&&..   ",
"  * ..$$$$..@@@@@@@@......     ",
"   *..$$$$..@@@@@@@@......     ",
"   *  ....@@@@@@@@@@..         ",
"   *  ....@@@@@@@@@@..         ",
"        ..@@......##..         ",
"        ..@@......##..         ",
"        ..$$..  ..$$..         ",
"        ..$$..  ..$$..         ",
"                               "};
