/* XPM */
static char * door_closed_xpm[] = {
"32 32 221 2",
"  	c #C0D470",
". 	c #5A6988",
"+ 	c #788644",
"@ 	c #768342",
"# 	c #566030",
"$ 	c #69753B",
"% 	c #A6B760",
"& 	c #3A4466",
"* 	c #454D25",
"= 	c #545E2F",
"- 	c #ACBF64",
"; 	c #525C2D",
"> 	c #8B9A4F",
", 	c #262B44",
"' 	c #515A2C",
") 	c #708542",
"! 	c #707C3F",
"~ 	c #99A958",
"{ 	c #545E2E",
"] 	c #181D0A",
"^ 	c #0E0F04",
"/ 	c #1E200C",
"( 	c #1D220D",
"_ 	c #8B9BB4",
": 	c #20230D",
"< 	c #040401",
"[ 	c #151A09",
"} 	c #191E0A",
"| 	c #565F2F",
"1 	c #A9BB62",
"2 	c #1D210B",
"3 	c #0A0D03",
"4 	c #080B02",
"5 	c #0F1305",
"6 	c #C0CBDC",
"7 	c #141706",
"8 	c #090D04",
"9 	c #060802",
"0 	c #0F1206",
"a 	c #5B6532",
"b 	c #98A857",
"c 	c #5A6432",
"d 	c #99AA58",
"e 	c #586231",
"f 	c #67733A",
"g 	c #171B09",
"h 	c #121306",
"i 	c #2A3014",
"j 	c #3B4320",
"k 	c #353C1B",
"l 	c #141707",
"m 	c #1A1E0A",
"n 	c #191F0B",
"o 	c #090A03",
"p 	c #050602",
"q 	c #727E41",
"r 	c #3B421F",
"s 	c #020201",
"t 	c #2E3418",
"u 	c #2F3517",
"v 	c #292D13",
"w 	c #1B1F0B",
"x 	c #FFFFFF",
"y 	c #242911",
"z 	c #383E1D",
"A 	c #242A13",
"B 	c #010101",
"C 	c #3A421F",
"D 	c #89984E",
"E 	c #0A0C03",
"F 	c #2C3215",
"G 	c #3B441F",
"H 	c #3D441F",
"I 	c #353D1B",
"J 	c #2E3416",
"K 	c #393E1D",
"L 	c #56602F",
"M 	c #131606",
"N 	c #030401",
"O 	c #6C783D",
"P 	c #0B0E03",
"Q 	c #2E3017",
"R 	c #242B12",
"S 	c #252A11",
"T 	c #343B1B",
"U 	c #5D6532",
"V 	c #6E7A3E",
"W 	c #9CAC5A",
"X 	c #1A1D0A",
"Y 	c #0A0B03",
"Z 	c #070803",
"` 	c #111406",
" .	c #171909",
"..	c #060701",
"+.	c #0B0D04",
"@.	c #161908",
"#.	c #738041",
"$.	c #87954D",
"%.	c #7E8D48",
"&.	c #8F9F52",
"*.	c #84924B",
"=.	c #252A12",
"-.	c #242A11",
";.	c #23290F",
">.	c #2B3215",
",.	c #343A1A",
"'.	c #2F3518",
").	c #272A12",
"!.	c #22280F",
"~.	c #21250F",
"{.	c #7A8845",
"].	c #7F8D49",
"^.	c #0C0F03",
"/.	c #0F1205",
"(.	c #262B12",
"_.	c #2C3216",
":.	c #131506",
"<.	c #1B1F0C",
"[.	c #3E431F",
"}.	c #1C210C",
"|.	c #282E13",
"1.	c #6B773D",
"2.	c #818F49",
"3.	c #2A3015",
"4.	c #4F592B",
"5.	c #5C6834",
"6.	c #2D3417",
"7.	c #414822",
"8.	c #262C12",
"9.	c #111506",
"0.	c #3E4520",
"a.	c #6D773D",
"b.	c #8C9B50",
"c.	c #171A08",
"d.	c #606C36",
"e.	c #444D25",
"f.	c #2C3015",
"g.	c #1F250E",
"h.	c #353B1A",
"i.	c #262C13",
"j.	c #7C8946",
"k.	c #7F8E49",
"l.	c #070802",
"m.	c #2A3115",
"n.	c #111306",
"o.	c #434B24",
"p.	c #3D4420",
"q.	c #444B24",
"r.	c #768242",
"s.	c #5F6A35",
"t.	c #7A8745",
"u.	c #737F42",
"v.	c #101306",
"w.	c #1E230E",
"x.	c #232811",
"y.	c #22260F",
"z.	c #2D3416",
"A.	c #373F1C",
"B.	c #2D3216",
"C.	c #303519",
"D.	c #303618",
"E.	c #0F1106",
"F.	c #121506",
"G.	c #88974E",
"H.	c #788444",
"I.	c #1A1E0B",
"J.	c #050702",
"K.	c #0D0F04",
"L.	c #0D0F05",
"M.	c #2E3417",
"N.	c #090B02",
"O.	c #262C11",
"P.	c #121606",
"Q.	c #7D8A46",
"R.	c #707D3F",
"S.	c #191C0A",
"T.	c #19190F",
"U.	c #1E230D",
"V.	c #1F240E",
"W.	c #151808",
"X.	c #292B1C",
"Y.	c #1D220C",
"Z.	c #818D48",
"`.	c #798745",
" +	c #1A1F0A",
".+	c #2E2E1E",
"++	c #262A11",
"@+	c #111505",
"#+	c #282E12",
"$+	c #0A0D04",
"%+	c #323A1A",
"&+	c #2D3115",
"*+	c #7C8846",
"=+	c #252A10",
"-+	c #32391A",
";+	c #262A12",
">+	c #272C12",
",+	c #7C8947",
"'+	c #788745",
")+	c #050502",
"!+	c #22250E",
"~+	c #171B08",
"{+	c #0C0F04",
"]+	c #0F1104",
"^+	c #252911",
"/+	c #808C49",
"(+	c #626C36",
"_+	c #141607",
":+	c #181D09",
"<+	c #040601",
"[+	c #0B0D03",
"}+	c #7E8B48",
"|+	c #7B8946",
"1+	c #0A0A03",
"2+	c #040402",
"3+	c #090903",
"4+	c #090B03",
"5+	c #0E1105",
"6+	c #121507",
"7+	c #86944D",
"8+	c #738142",
"                        . . . . . . . . + @ # $ %               ",
"                  . . . & & . & & . . . . . . * = -             ",
"              . . . . & & & & & & & . & & & & . . ; >           ",
"            . & & , & & & & & & & , , & & & & & & . ' )         ",
"          . & & & . , , & , , , , , , , & & & & & & . ! ~       ",
"          . & & & & , , , . . . . . . , , , & & & & . { $       ",
"        . & & & & , , ] ^ / ( _ _ : < [ } , , , , & & & | 1     ",
"        . & & & & , . 2 3 4 5 6 6 7 8 9 0 _ , , & & & & a b     ",
"      . . & & , , . _ 6 6 6 6 6 6 6 6 6 6 6 _ , & & & & & c d   ",
"      . . & , , , _ 6 _ _ _ _ 6 6 _ _ _ _ 6 6 , & & & , & e f   ",
"      . . . & & g _ 6 h i j k 6 _ l m n o 6 6 p , & , , , q r   ",
"    . . & & & & s _ _ t u v w x _ y z A 9 x _ B & & & & & & C D ",
"    . & & & & , E _ _ F G H I 6 _ J K L M 6 _ N . & & & & & e O ",
"    . & & & & , P _ _ J Q ( R x _ S T U M x _ 5 . & & & & & V W ",
"    & & & & , , X _ 6 Y Z `  .x 6 s ..+.E x 6 @.. . & & , & #.$.",
"    . & , & , , . _ 6 6 6 x x 6 6 6 6 x x 6 6 _ . & & & , , %.&.",
"    & , & , , . . _ 6 _ _ _ _ 6 6 _ _ _ _ 6 6 _ _ & & , , , *.&.",
"    & . . & & , =._ _ -.;.F >.6 6 ,.'.).!.6 _ >.~.. . & & , {.].",
"    & . & & , , l _ _ ^./.(._.x _ :.<.[.}.x _ |.. . & & & & 1.2.",
"    & & & & & , l _ _ 3.4.5.z 6 _ 6.7.8.9.6 _ 0.. & & & & & a.b.",
"    & & & & & , :._ _ c.d.e.f.x _ g.L h.<.x 6 i.& & & & & & j.k.",
"    & . & & & , :._ 6 l.m._.n.x 6 g.o.p.R x _ q.& . & & & & j.%.",
"    & . & & & , . _ 6 6 6 x x 6 6 6 6 x x 6 6 _ . . & & & & r.s.",
"    & & & & , , . _ 6 _ _ _ _ 6 6 _ _ _ _ 6 6 _ . & & & & , t.u.",
"    & , , , , , v._ 6 w.x.y.z.6 _ A.B.C.D.6 _ E.F.. & , , , G.H.",
"    & . . . & & l _ _ I.J.K.L.6 _ M.N.O.,.6 _ P.. & & & & , Q.R.",
"    & . . & & & S._ _ T.m U.V.x 6 (.W.O.X.x _ Y.. & & & & & Z.`.",
"    & . . & & &  +_ 6 .+++@+#+x 6 '.N $+%+x 6 &+. & & & & & *+#.",
"    & . & & & , . _ 6 _ =+-+x 6 6 _ ;+>+x 6 6 _ . . & & & & ,+'+",
"    , . & & & , )+_ _ y.@+!+z._ _ ~+{+]+++_ _ ^+. . & & & , /+(+",
"    , & & & & , _+_ . @.N B E _ . :+<+[+^+_ . ` . . & & , , }+|+",
"      & , , , ` B ^.1+2+< 3+1+1+1+1+4+4+4+^ +.5+6+. . , , 7+a 8+"};
