/* XPM */
static char * door_open_xpm[] = {
"32 32 131 2",
"  	c #C0D470",
". 	c #BFD36F",
"+ 	c #BED26F",
"@ 	c #BBCF6D",
"# 	c #B8CB6B",
"$ 	c #B4C769",
"% 	c #5A6988",
"& 	c #67723A",
"* 	c #4F582B",
"= 	c #67733A",
"- 	c #8A994F",
"; 	c #A0B05C",
"> 	c #B7CA6B",
", 	c #BFD26F",
"' 	c #BCD06E",
") 	c #3A4466",
"! 	c #495128",
"~ 	c #616C36",
"{ 	c #95A556",
"] 	c #9BAB5A",
"^ 	c #262B44",
"/ 	c #7E8C48",
"( 	c #88A051",
"_ 	c #BACE6C",
": 	c #768343",
"< 	c #A1B25D",
"[ 	c #BED16E",
"} 	c #BED16F",
"| 	c #0D0F04",
"1 	c #070902",
"2 	c #050602",
"3 	c #040501",
"4 	c #060802",
"5 	c #6E7A3E",
"6 	c #85934C",
"7 	c #ADBF64",
"8 	c #BBCE6D",
"9 	c #0E1105",
"0 	c #070802",
"a 	c #040401",
"b 	c #020301",
"c 	c #010200",
"d 	c #010100",
"e 	c #060702",
"f 	c #667139",
"g 	c #86954D",
"h 	c #B9CC6C",
"i 	c #B7CA6A",
"j 	c #0B0E04",
"k 	c #050601",
"l 	c #000100",
"m 	c #000000",
"n 	c #050501",
"o 	c #707B3E",
"p 	c #727F41",
"q 	c #ABBD63",
"r 	c #BFD370",
"s 	c #0B0D03",
"t 	c #030401",
"u 	c #657038",
"v 	c #BDD16E",
"w 	c #BACD6C",
"x 	c #030501",
"y 	c #020200",
"z 	c #020201",
"A 	c #667239",
"B 	c #7B8846",
"C 	c #080902",
"D 	c #7F8C49",
"E 	c #7F8C48",
"F 	c #A2B35E",
"G 	c #030301",
"H 	c #96A656",
"I 	c #606A35",
"J 	c #83924B",
"K 	c #6D793D",
"L 	c #616B36",
"M 	c #515B2C",
"N 	c #768243",
"O 	c #424A23",
"P 	c #707C3F",
"Q 	c #0F1205",
"R 	c #131606",
"S 	c #464E25",
"T 	c #758242",
"U 	c #151808",
"V 	c #3F4721",
"W 	c #69753B",
"X 	c #050702",
"Y 	c #39401E",
"Z 	c #6F7B3F",
"` 	c #404721",
" .	c #7C8946",
"..	c #BDD06F",
"+.	c #454D25",
"@.	c #758142",
"#.	c #B9CD6C",
"$.	c #3C431F",
"%.	c #B7CB6A",
"&.	c #010201",
"*.	c #3D4420",
"=.	c #B5C969",
"-.	c #121506",
";.	c #3B421F",
">.	c #B4C669",
",.	c #353B1B",
"'.	c #6B773C",
").	c #B2C568",
"!.	c #020302",
"~.	c #292E13",
"{.	c #606B35",
"].	c #B3C568",
"^.	c #010101",
"/.	c #444C24",
"(.	c #5A6432",
"_.	c #BDD16F",
":.	c #3E4520",
"<.	c #56602F",
"[.	c #B2C567",
"}.	c #3A401E",
"|.	c #657139",
"1.	c #B3C668",
"2.	c #333A1A",
"3.	c #545E2E",
"4.	c #B5C86A",
"5.	c #A0B15C",
"6.	c #040601",
"7.	c #040502",
"8.	c #131607",
"9.	c #292F14",
"0.	c #252A11",
"              . + @ # $ % % % % % % % % & * = - ; >             ",
"            , ' # % % % ) ) % ) ) % % % % % % ! ~ { '           ",
"          + @ % % % % ) ) ) ) ) ) ) % ) ) ) ) % % & ] '         ",
"        , @ % ) ) ^ ) ) ) ) ) ) ) ^ ^ ) ) ) ) ) ) % / ( _       ",
"      . ' % ) ) ) % ^ ^ ) ^ ^ ^ ^ ^ ^ ^ ) ) ) ) ) ) % : < [     ",
"      } > % ) ) ) ) ^ ^ ^ | 1 2 3 3 4 ^ ^ ^ ) ) ) ) % 5 6 7 .   ",
"    . 8 % ) ) ) ) ^ ^ 9 0 a b c d d c b e ^ ^ ^ ^ ) ) ) f g h   ",
"    } i % ) ) ) ) ^ j k b d d l l m m d c n ^ ^ ) ) ) ) o p q . ",
"  r ' % % ) ) ^ ^ s t b d d l l m m m m m c e ^ ) ) ) ) ) u { v ",
"  . w % % ) ^ ^ ^ x y d d d d m m m m m m d z ^ ) ) ) ^ ) A B i ",
"  + # % % % ) ) C c d d d d d m m m m m m m d k ^ ) ^ ^ ^ D E F ",
"  + % % ) ) ) ) 2 y d l l d m m m m m m m m d G ) ) ) ) ) ) : H ",
"  + % ) ) ) ) ^ 3 d m m m m m m m m m m m m m y % ) ) ) ) ) I J ",
"  + % ) ) ) ) ^ t d m m m m m m m m m m m m m y % ) ) ) ) ) K L ",
"  . ) ) ) ) ^ ^ t d m m m m m m m m m m m m m y % % ) ) ^ ) M N ",
"  . % ) ^ ) ^ ^ t d m m m m m m m m m m m m d G % ) ) ) ^ ^ O P ",
"  . ) ^ ) ^ ^ Q t d m m m m m m m m m m m m d 3 R ) ) ^ ^ ^ S T ",
"  . ) % % ) ) ^ b l m m m m m m m m m m m m d k U % % ) ) ^ V W ",
"  . ) % ) ) ^ ^ z d m m m m m m m m m m m d y X % % ) ) ) ) Y Z ",
"  , ) ) ) ) ) ^ c m m m m m m m m m m m l d y e % ) ) ) ) ) `  .",
"  ..) ) ) ) ) ^ d m m m m m m m m m m m l d c 2 ) ) ) ) ) ) +.T ",
"r @ ) % ) ) ) ^ d m m m m m m m m m m l l d z k ) % ) ) ) ) +.@.",
". #.) % ) ) ) ^ d m m m m m m m m m m l l d z 2 % % ) ) ) ) $.W ",
"+ %.) ) ) ) ^ ^ d m m m m m m m m m m l m d &.2 % ) ) ) ) ^ *.5 ",
"[ =.) ^ ^ ^ ^ ^ d m m m m m m m m m m m d d &.2 -.% ) ^ ^ ^ ;.E ",
"v >.) % % % ) ) d l m m m m m m m m m m d d &.2 % ) ) ) ) ^ ,.'.",
"v ).) % % ) ) ) d d l d m m m m m m m m d d !.2 % ) ) ) ) ) ~.{.",
"v ].) % % ) ) ) d d l d m m m m m m m m m ^.z 2 % ) ) ) ) ) /.(.",
"_.).) % ) ) ) ^ d l m l m m m m m m m m d d z k % % ) ) ) ) :.<.",
"+ [.^ % ) ) ) ^ d m m m m m m m l d d l d d z k % % ) ) ) ^ }.|.",
"v 1.^ ) ) ) ) ^ d l m m m m d d d c y z z z G e % % ) ) ^ ^ 2.3.",
"} 4.5.) ^ ^ ^ 0 b d d d d d d z t 6.2 k 7.6.e 1 8.% % ^ ^ 9.0.~ "};
