/* XPM */
static char *wall[] = {
/* columns rows colors chars-per-pixel */
"32 32 5 1 ",
"  c black",
". c #242A3D",
"X c #414B66",
"o c #677598",
"O c #8F9AB0",
/* pixels */
"oXoooXoooooooooooXoooXoooooooooo",
"o.Xoo.oooooooOooo.Xoo.ooXooooooo",
"XoooXXooOOOOoXOOXoooooXXooOOOOoo",
"OOoooXoOooooO.XXOOOOOOoXoOooooOo",
"oooo..Xoooooo...oooooo..Xoooooo.",
"ooXXX.ooooXXXo.oooooXXX.ooooXXXo",
"oXXXX.oXXXXXXX.oooXXXXX.oooXXXXX",
"XoXXX.XoXXXXXX.XXXXoXXX.XoXXXXXX",
"XXXX...XXXXXX...XXXXXX...XXXXXX ",
".........ooooX.............oooo ",
"ooooo...oooXXo.Xooooooo...ooXXoo",
"oooooo.oXXXoXXXooooooooo.oXXXXXo",
"oXXXXo.XXXXXXXoooXXXXXXo.XXXXXXX",
"XXXXXX.XXXXXX.oXXXXXXXXX.XXXXXXX",
"XXXXX..........XXXXXXXX...XXXXX ",
"oX..oooooo..XooooX..oooooo..Xooo",
"Xo.oooXXXoo.oooXXo.oooXXXoo.oooX",
"XX.oXXXXoXX.oXXXXX.oXXXXoXX.oXXX",
"X..XXXXXXXX..XXXX..XXXXXXXX..XXX",
"....XXXXXX..........XXXXXX..... ",
"oooo..Xoooooo...oooooo..Xoooooo.",
"ooXXX.ooooXXXo.oooooXXX.ooooXXXo",
"oXXXX.oXXXXXXX.oooXXXXX.oooXXXXX",
"XoXXX.XoXXXXXX.XXXXoXXX.XoXXXXXX",
"XXXX...XXXXXX...XXXXXX...XXXXXX ",
".........ooooX.............oooo ",
"ooooo...oooXXo.Xooooooo...ooXXoo",
"oooooo.oXXXXXXXooooooooo.oXXXXXo",
"oXXXXo.XXXXXXXoooXXXXXXo.XXXXXXX",
"XXXXXX.XXXXXX.oXXXXXXXXX.XXXXXXX",
"XXXXX..........XXXXXXXX...XXXXX ",
"oX..oooooo..XooooX..oooooo..Xooo"
};
